<svg width="100" height="28" viewBox="0 0 100 28" fill="none" xmlns="http://www.w3.org/2000/svg">
<g clip-path="url(#clip0)">
<path d="M0 27.4184V1.71723C0 1.2593 0.171723 0.858615 0.515169 0.515169C0.858615 0.171723 1.2593 0 1.71723 0C2.17516 0 2.57584 0.171723 2.91929 0.515169C3.26274 0.858615 3.43446 1.2593 3.43446 1.71723V23.9267H11.8489C12.3068 23.9267 12.7647 24.0985 13.1082 24.4419C13.4516 24.7853 13.6234 25.186 13.6234 25.644C13.6234 26.1019 13.4516 26.5598 13.1082 26.846C12.7647 27.1895 12.3641 27.3612 11.8489 27.3612H0V27.4184Z" fill="white"/>
<path d="M17.6302 24.9571L24.6136 1.31654C24.8998 0.457928 25.4722 0 26.3309 0C27.1895 0 27.7046 0.343446 27.9336 1.08758L34.8598 25.1288C34.917 25.3005 34.917 25.4722 34.917 25.644C34.917 26.1019 34.7453 26.5598 34.4018 26.846C34.0584 27.1895 33.7149 27.3612 33.257 27.3612C32.3412 27.3612 31.7688 26.9605 31.5398 26.1019L30.166 21.4081H22.324L20.7785 26.4453C20.7212 26.6743 20.5495 26.9033 20.2633 27.075C19.9771 27.2467 19.6337 27.3612 19.2902 27.3612C18.775 27.3612 18.3744 27.1895 18.0309 26.846C17.6875 26.5026 17.5157 26.1019 17.5157 25.5867C17.5157 25.415 17.573 25.186 17.6302 24.9571ZM26.3309 8.01374L23.3543 17.9164H29.1929L26.3309 8.01374Z" fill="white"/>
<path d="M55.4093 18.8895V20.435C55.4093 22.324 54.7224 23.984 53.4059 25.3578C52.0321 26.7315 50.4293 27.4184 48.4832 27.4184H39.3818V0H48.4832C50.3721 0 52.0321 0.686892 53.4059 2.06068C54.7797 3.43446 55.4093 5.03721 55.4093 6.9834V8.47167C55.4093 10.5323 54.6079 12.2496 53.0624 13.6806C54.6079 15.1116 55.4093 16.8861 55.4093 18.8895ZM51.8604 8.41442V6.9834C51.8604 6.0103 51.5169 5.20893 50.83 4.52204C50.1431 3.77791 49.3418 3.43446 48.3687 3.43446H42.8163V11.8489H48.3687C49.2845 11.8489 50.0859 11.5054 50.7728 10.8185C51.5169 10.1317 51.8604 9.33028 51.8604 8.41442ZM51.8604 20.435V19.004C51.8604 18.0309 51.5169 17.2295 50.83 16.5426C50.1431 15.8558 49.3418 15.5123 48.3687 15.5123H42.8735V23.9267H48.3687C49.2845 23.9267 50.0859 23.5833 50.7728 22.8964C51.5169 22.2095 51.8604 21.3509 51.8604 20.435Z" fill="white"/>
<path d="M72.696 2.5186L76.5311 10.3034C77.0463 11.3337 77.3325 12.5358 77.3325 13.7378C77.3325 14.9399 77.0463 16.0847 76.5311 17.1723L72.696 24.8426C71.8946 26.5598 70.5208 27.3612 68.5747 27.3612C67.6588 27.3612 66.8002 27.1322 66.1133 26.6171C65.3692 26.1591 64.7967 25.5295 64.4533 24.7853L60.6182 17.1723C60.103 16.142 59.874 15.0544 59.874 13.7378C59.874 12.4213 60.103 11.3337 60.6182 10.3034L64.4533 2.5186C65.3119 0.801374 66.6857 0 68.5747 0C70.5208 0 71.8946 0.858615 72.696 2.5186ZM67.4298 4.29307L63.8237 11.5627C63.4802 12.3068 63.3085 12.9937 63.3085 13.6806C63.3085 14.4247 63.4802 15.1689 63.8237 15.8558L67.4871 23.2398C67.6588 23.6978 68.0022 23.9267 68.5174 23.9267C68.9753 23.9267 69.3188 23.6978 69.5478 23.2398L73.2684 15.8558C73.6119 15.1116 73.7836 14.4247 73.7836 13.6806C73.7836 12.9365 73.6119 12.1923 73.2684 11.5627L69.6622 4.29307C69.4333 3.77791 69.0898 3.4917 68.5747 3.4917C68.0595 3.43446 67.716 3.72066 67.4298 4.29307Z" fill="white"/>
<path d="M82.5415 25.644V0H94.7911C96.2221 0 97.4242 0.515169 98.4545 1.54551C99.4848 2.57584 100 3.77791 100 5.20893V7.21236C100 8.64339 99.4848 9.90269 98.4545 10.933C97.4242 11.9634 96.2221 12.4785 94.7911 12.4785H92.5587L99.6566 24.6136C99.8855 24.9571 100 25.3005 100 25.7012C100 26.1591 99.8283 26.5598 99.4848 26.9033C99.1414 27.2467 98.7407 27.4184 98.2828 27.4184C97.5959 27.4184 97.0807 27.1322 96.7373 26.5026L88.6091 12.4785H86.0904V25.7012C86.0904 26.1591 85.9187 26.6171 85.5753 26.9033C85.2318 27.2467 84.8311 27.4184 84.316 27.4184C83.858 27.4184 83.4001 27.2467 83.1139 26.9033C82.7132 26.5598 82.5415 26.1591 82.5415 25.644ZM85.976 8.98683H94.7338C95.1918 8.98683 95.6497 8.81511 95.9359 8.47167C96.2793 8.12822 96.4511 7.72753 96.4511 7.26961V5.20893C96.4511 4.751 96.2793 4.29307 95.9359 4.00687C95.5925 3.66342 95.1918 3.4917 94.7338 3.4917H85.976V8.98683Z" fill="white"/>
</g>
<defs>
<clipPath id="clip0">
<rect width="100" height="27.4184" fill="white"/>
</clipPath>
</defs>
</svg>
