<svg width="1000" height="275" viewBox="0 0 1000 275" fill="none" xmlns="http://www.w3.org/2000/svg">
<g clip-path="url(#clip0)">
<path d="M0 274.184V17.1723C0 12.593 1.71723 8.58615 5.15169 5.15169C8.58615 1.71723 12.593 0 17.1723 0C21.7516 0 25.7584 1.71723 29.1929 5.15169C32.6274 8.58615 34.3446 12.593 34.3446 17.1723V239.267H118.489C123.068 239.267 127.647 240.985 131.082 244.419C134.516 247.853 136.234 251.86 136.234 256.44C136.234 261.019 134.516 265.598 131.082 268.46C127.647 271.895 123.641 273.612 118.489 273.612H0V274.184Z" fill="black"/>
<path d="M176.303 249.571L246.137 13.1654C248.999 4.57928 254.723 0 263.309 0C271.895 0 277.047 3.43446 279.337 10.8758L348.598 251.288C349.171 253.005 349.171 254.722 349.171 256.44C349.171 261.019 347.454 265.598 344.019 268.46C340.585 271.895 337.15 273.612 332.571 273.612C323.412 273.612 317.688 269.605 315.399 261.019L301.661 214.081H223.241L207.786 264.453C207.213 266.743 205.496 269.033 202.634 270.75C199.772 272.467 196.337 273.612 192.903 273.612C187.751 273.612 183.744 271.895 180.31 268.46C176.875 265.026 175.158 261.019 175.158 255.867C175.158 254.15 175.731 251.86 176.303 249.571ZM263.309 80.1374L233.544 179.164H291.93L263.309 80.1374Z" fill="black"/>
<path d="M554.093 188.895V204.35C554.093 223.24 547.224 239.84 534.059 253.578C520.321 267.315 504.293 274.184 484.831 274.184H393.818V0H484.831C503.721 0 520.321 6.86892 534.059 20.6068C547.797 34.3446 554.093 50.3721 554.093 69.834V84.7167C554.093 105.323 546.079 122.496 530.624 136.806C546.079 151.116 554.093 168.861 554.093 188.895ZM518.604 84.1442V69.834C518.604 60.103 515.169 52.0893 508.3 45.2204C501.431 37.7791 493.418 34.3446 483.687 34.3446H428.163V118.489H483.687C492.845 118.489 500.859 115.054 507.728 108.185C515.169 101.317 518.604 93.3028 518.604 84.1442ZM518.604 204.35V190.04C518.604 180.309 515.169 172.295 508.3 165.426C501.431 158.558 493.418 155.123 483.687 155.123H428.735V239.267H483.687C492.845 239.267 500.859 235.833 507.728 228.964C515.169 222.095 518.604 213.509 518.604 204.35Z" fill="black"/>
<path d="M726.96 25.186L765.311 103.034C770.463 113.337 773.325 125.358 773.325 137.378C773.325 149.399 770.463 160.847 765.311 171.723L726.96 248.426C718.946 265.598 705.208 273.612 685.747 273.612C676.588 273.612 668.002 271.322 661.133 266.171C653.692 261.591 647.967 255.295 644.533 247.853L606.182 171.723C601.03 161.42 598.74 150.544 598.74 137.378C598.74 124.213 601.03 113.337 606.182 103.034L644.533 25.186C653.119 8.01374 666.857 0 685.747 0C705.208 0 718.946 8.58615 726.96 25.186ZM674.298 42.9307L638.237 115.627C634.802 123.068 633.085 129.937 633.085 136.806C633.085 144.247 634.802 151.689 638.237 158.558L674.871 232.398C676.588 236.978 680.022 239.267 685.174 239.267C689.753 239.267 693.188 236.978 695.477 232.398L732.684 158.558C736.119 151.116 737.836 144.247 737.836 136.806C737.836 129.365 736.119 121.923 732.684 115.627L696.622 42.9307C694.333 37.7791 690.898 34.917 685.747 34.917C680.595 34.3446 677.16 37.2066 674.298 42.9307Z" fill="black"/>
<path d="M825.414 256.44V0H947.91C962.22 0 974.241 5.15169 984.544 15.4551C994.847 25.7584 999.999 37.7791 999.999 52.0893V72.1236C999.999 86.4339 994.847 99.0269 984.544 109.33C974.241 119.634 962.22 124.785 947.91 124.785H925.586L996.565 246.136C998.854 249.571 999.999 253.005 999.999 257.012C999.999 261.591 998.282 265.598 994.847 269.033C991.413 272.467 987.406 274.184 982.827 274.184C975.958 274.184 970.806 271.322 967.372 265.026L886.09 124.785H860.903V257.012C860.903 261.591 859.186 266.171 855.752 269.033C852.317 272.467 848.31 274.184 843.159 274.184C838.58 274.184 834 272.467 831.138 269.033C827.131 265.598 825.414 261.591 825.414 256.44ZM859.759 89.8683H947.337C951.917 89.8683 956.496 88.1511 959.358 84.7167C962.792 81.2822 964.51 77.2753 964.51 72.6961V52.0893C964.51 47.51 962.792 42.9307 959.358 40.0687C955.924 36.6342 951.917 34.917 947.337 34.917H859.759V89.8683Z" fill="black"/>
</g>
<defs>
<clipPath id="clip0">
<rect width="1000" height="274.184" fill="white"/>
</clipPath>
</defs>
</svg>
